<?xml version="1.0" encoding="UTF-8"?>
<svg version="1.1" xmlns="http://www.w3.org/2000/svg" width="512" height="512">
<path d="M0 0 C2.45802065 -0.00536853 4.91603507 -0.01506854 7.37402344 -0.02876282 C13.34110233 -0.05043791 19.30634535 -0.02589884 25.27314775 0.02048869 C32.22420442 0.07257509 39.17496502 0.07205358 46.12618013 0.06962579 C58.52614518 0.06712699 70.92546351 0.1128215 83.32519531 0.18554688 C95.35526296 0.25606742 107.38476191 0.29139656 119.41503906 0.28808594 C120.15689911 0.28788616 120.89875916 0.28768638 121.66309981 0.28748054 C122.40368536 0.28727877 123.14427091 0.287077 123.90729845 0.28686911 C137.61389102 0.28342094 151.32024237 0.31285192 165.02675676 0.35763519 C169.87209752 0.37271561 174.71739396 0.3780327 179.56275558 0.38029671 C186.07844905 0.38406152 192.59362062 0.41575834 199.10914612 0.4661274 C201.50369728 0.48076055 203.8983174 0.48687756 206.29291153 0.48398972 C209.55401975 0.48154456 212.81343718 0.50972369 216.0743103 0.54603577 C217.50570707 0.53442125 217.50570707 0.53442125 218.96602094 0.5225721 C220.27499009 0.54675545 220.27499009 0.54675545 221.61040306 0.57142735 C222.36290411 0.57494947 223.11540517 0.5784716 223.89070928 0.58210045 C227.18223854 1.57903329 228.22455997 3.31968408 229.97900391 6.21459961 C230.48040056 9.48441887 230.48040056 9.48441887 230.48236847 13.28146362 C230.48818223 13.98472157 230.493996 14.68797951 230.49998593 15.4125483 C230.51461383 17.77513524 230.50068857 20.13668778 230.48693848 22.49926758 C230.49154631 24.20769216 230.49789843 25.91611277 230.50584745 27.62452507 C230.52258012 32.32393434 230.51427657 37.02301963 230.50190258 41.72243023 C230.4928705 46.78862923 230.50681265 51.85477163 230.51782227 56.92095947 C230.53563178 66.84750276 230.53175667 76.77392524 230.5201717 86.70047331 C230.51114722 94.76620699 230.50990911 102.83190676 230.51426697 110.89764404 C230.5148799 112.04452253 230.51549283 113.19140102 230.51612434 114.3730334 C230.51740321 116.70271509 230.51870006 119.03239676 230.5200147 121.36207843 C230.53142763 143.22019198 230.51829562 165.07823849 230.49681324 186.93634105 C230.47894162 205.70165353 230.48204553 224.46686704 230.50048828 243.23217773 C230.5218824 265.01075687 230.53032892 286.7892772 230.51803923 308.56786537 C230.516765 310.8890953 230.51550751 313.21032523 230.51426697 315.53155518 C230.51334131 317.2447999 230.51334131 317.2447999 230.51239696 318.99265563 C230.50893969 327.05100594 230.51478053 335.10931903 230.52418518 343.16766357 C230.53539034 352.98480737 230.53239635 362.80182319 230.5110622 372.61895227 C230.50053183 377.6301875 230.49646377 382.64120917 230.50965881 387.65244293 C230.52154743 392.23676932 230.5150787 396.82068351 230.49374861 401.40497231 C230.48926752 403.06640408 230.49158244 404.72787041 230.50125176 406.38928008 C230.5133635 408.6425982 230.5009958 410.89449259 230.48236847 413.1477356 C230.48171906 414.40076036 230.48106965 415.65378513 230.48040056 416.94478035 C229.88476531 420.8291693 228.75812372 422.48087647 225.97900391 425.21459961 C222.64525997 426.32584759 220.248432 426.29986149 216.73852539 426.24536133 C215.44965927 426.22980194 214.16079315 426.21424255 212.83287048 426.19821167 C212.14371992 426.18867336 211.45456936 426.17913506 210.74453545 426.16930771 C206.30815107 426.11754543 201.87137517 426.12352538 197.43473721 426.11794853 C193.54457701 426.10975188 189.65642466 426.08216569 185.7668457 426.01245117 C181.99531738 425.94598888 178.22697192 425.93407668 174.45497322 425.95770645 C173.02568527 425.95710019 171.59625851 425.93727075 170.1675396 425.89693832 C163.96420679 425.73085056 158.98963714 425.65160268 153.96047974 429.56109619 C151.41138949 432.33522894 149.18055608 435.16035829 146.97900391 438.21459961 C145.5294722 439.99264478 144.07235068 441.76456037 142.60400391 443.52709961 C141.87439453 444.43073242 141.14478516 445.33436523 140.39306641 446.26538086 C137.6403844 449.62828525 134.81716125 452.92387244 131.97900391 456.21459961 C126.32486785 462.776046 120.82226452 469.44820287 115.38525391 476.19116211 C112.19250391 480.10784961 112.19250391 480.10784961 109.97900391 481.21459961 C104.29472018 481.77370948 104.29472018 481.77370948 101.97900391 481.21459961 C99.51416016 479.01147461 99.51416016 479.01147461 96.97900391 476.21459961 C96.20041016 475.38702148 95.42181641 474.55944336 94.61962891 473.70678711 C89.69852713 468.31930641 84.97055482 462.83112301 80.38525391 457.15600586 C77.23747159 453.30814858 74.00222938 449.53976865 70.75488281 445.77587891 C70.06531494 444.97597534 70.06531494 444.97597534 69.36181641 444.15991211 C68.85156418 443.61297195 68.34131195 443.0660318 67.81559753 442.5025177 C65.97900391 440.21459961 65.97900391 440.21459961 64.36479187 437.03417969 C61.97021439 432.76546232 59.33342509 429.57025592 54.97900391 427.21459961 C45.44131645 424.87128554 35.14524354 425.59628413 25.38732886 425.79334402 C21.45577431 425.85809733 17.52446104 425.84609942 13.59248352 425.84182739 C6.15466417 425.84469766 -1.28108047 425.91092943 -8.71828288 426.00259507 C-19.63560318 426.1347227 -30.55336834 426.18072058 -41.471385 426.21498299 C-42.6746434 426.21879535 -42.6746434 426.21879535 -43.90221006 426.22268474 C-45.50185918 426.2277079 -47.1015089 426.23254269 -48.70115918 426.23718369 C-53.37389755 426.25301989 -58.04581469 426.29068383 -62.71822989 426.34754443 C-65.62363034 426.38099237 -68.52904942 426.40283413 -71.43457222 426.42251015 C-73.41822351 426.44013172 -75.40171798 426.47327601 -77.38516235 426.50691223 C-79.16590401 426.51628563 -79.16590401 426.51628563 -80.98262024 426.52584839 C-82.00995931 426.53812407 -83.03729837 426.55039974 -84.09576893 426.56304741 C-87.60681847 426.1448175 -89.99892639 425.0216355 -93.02099609 423.21459961 C-94.3222724 420.612047 -94.14393514 418.72640142 -94.14125061 415.81100464 C-94.14331261 414.09039322 -94.14331261 414.09039322 -94.14541626 412.33502197 C-94.14002335 410.43825714 -94.14002335 410.43825714 -94.13452148 408.50317383 C-94.13423952 407.16299441 -94.13439752 405.82281483 -94.13496399 404.4826355 C-94.13525161 400.8382286 -94.1293606 397.19385444 -94.12239003 393.54945517 C-94.1161506 389.74310566 -94.11555223 385.93675545 -94.11436462 382.13040161 C-94.11125305 374.91977002 -94.103042 367.70915353 -94.09301513 360.4985286 C-94.08184861 352.29065982 -94.07634218 344.08279032 -94.0713197 335.87491584 C-94.06085925 318.98813501 -94.04326316 302.10136891 -94.02099609 285.21459961 C-95.1366243 285.22348206 -96.2522525 285.2323645 -97.40168762 285.24151611 C-107.94967948 285.3228376 -118.49760717 285.3826778 -129.04584217 285.4218483 C-134.46795092 285.44266373 -139.88980523 285.47087047 -145.31176758 285.51635742 C-150.55079819 285.5600313 -155.78958509 285.58378211 -161.0287838 285.59410858 C-163.02094035 285.60146142 -165.01308457 285.61581925 -167.00513649 285.63751984 C-192.1800092 285.90069187 -192.1800092 285.90069187 -202.29833984 276.28100586 C-208.62202132 268.69545597 -210.16757122 260.89402073 -210.19799805 251.30615234 C-210.20785484 249.95652657 -210.20785484 249.95652657 -210.21791077 248.57963562 C-210.23761607 245.60248729 -210.24930244 242.62538944 -210.25927734 239.64819336 C-210.26335287 238.62853045 -210.2674284 237.60886753 -210.27162743 236.55830574 C-210.29247994 231.15752491 -210.30678321 225.7567694 -210.31616211 220.35595703 C-210.32720324 214.7967999 -210.36157916 209.23804559 -210.40133381 203.67903042 C-210.42757343 199.3885477 -210.43586064 195.09815972 -210.43944359 190.80760384 C-210.44429335 188.75963697 -210.455861 186.71167389 -210.47448158 184.66378593 C-210.69244357 159.09584923 -210.69244357 159.09584923 -201.71240234 149.71069336 C-193.4516639 142.40385081 -184.60810262 140.89065015 -173.8293457 140.98754883 C-172.95996368 140.98725677 -172.09058167 140.98696472 -171.19485474 140.98666382 C-168.3542441 140.98804432 -165.513904 141.00354453 -162.67333984 141.01928711 C-160.69080244 141.0230218 -158.70826318 141.02586662 -156.72572327 141.02786255 C-151.53242815 141.03546309 -146.33924663 141.05508055 -141.14599609 141.07727051 C-135.83676693 141.09780636 -130.52751924 141.10688076 -125.21826172 141.11694336 C-114.81912353 141.13833006 -104.4200693 141.1724224 -94.02099609 141.21459961 C-94.04542282 140.41439392 -94.06984955 139.61418823 -94.09501648 138.78973389 C-94.31662144 131.20020977 -94.48348076 123.61228104 -94.59092999 116.02035141 C-94.64803448 112.11818789 -94.72529252 108.21872453 -94.85083008 104.31811523 C-94.97151203 100.54419283 -95.03635117 96.77284365 -95.06464577 92.99713898 C-95.0847708 91.56644446 -95.1240727 90.13587063 -95.18402672 88.7062912 C-95.4752275 81.46610427 -95.09975402 75.71696025 -90.21780872 70.07245255 C-87.91506309 67.66291295 -85.50556184 65.43830236 -83.02099609 63.21459961 C-81.59723772 61.80506032 -80.17885256 60.39002202 -78.77099609 58.96459961 C-78.13419922 58.33811523 -77.49740234 57.71163086 -76.84130859 57.06616211 C-75.02468361 55.21835043 -73.33143648 53.30725326 -71.64599609 51.33959961 C-68.90478161 48.14777452 -66.01413722 45.17156984 -63.02099609 42.21459961 C-60.06916584 39.29833358 -57.21710751 36.36854126 -54.52099609 33.21459961 C-51.03647503 29.13836742 -47.24017628 25.41909088 -43.42724609 21.65209961 C-41.36650265 19.56459326 -39.42583983 17.44290738 -37.52099609 15.21459961 C-36.98600809 14.62135423 -36.45102009 14.02810884 -35.89982033 13.41688633 C-33.95873111 11.23045765 -33.95873111 11.23045765 -32.33618736 8.67917538 C-24.03616766 -2.09551946 -12.47154797 -0.15769123 0 0 Z M-11.02099609 17.21459961 C-11.35099609 38.66459961 -11.68099609 60.11459961 -12.02099609 82.21459961 C-15.02099609 86.21459961 -15.02099609 86.21459961 -17.73551941 86.73358154 C-18.83028091 86.74246399 -19.92504242 86.75134644 -21.05297852 86.76049805 C-22.29403854 86.78021667 -23.53509857 86.7999353 -24.81376648 86.82025146 C-26.16799881 86.82191462 -27.52223174 86.82314549 -28.87646484 86.82397461 C-30.26225216 86.8389545 -31.64802161 86.85568126 -33.0337677 86.87408447 C-36.6784649 86.91779284 -40.32292129 86.93776438 -43.96783447 86.95281982 C-47.68817249 86.97237868 -51.40825644 87.0141334 -55.12841797 87.05444336 C-62.42610657 87.13188323 -69.72268162 87.17222913 -77.02099609 87.21459961 C-77.02099609 105.03459961 -77.02099609 122.85459961 -77.02099609 141.21459961 C-67.64886719 141.28807617 -67.64886719 141.28807617 -58.08740234 141.36303711 C-54.11798557 141.39844222 -50.14858994 141.43441298 -46.17919922 141.47241211 C-39.88536683 141.53260961 -33.59156388 141.59076589 -27.29760742 141.63647461 C-22.22060634 141.67347684 -17.14376852 141.71987667 -12.06690788 141.77266312 C-10.13457047 141.79112793 -8.20219816 141.80626476 -6.26980782 141.81794357 C-3.55332005 141.83494215 -0.8371998 141.86400867 1.87915039 141.89575195 C3.06491165 141.89899223 3.06491165 141.89899223 4.27462769 141.90229797 C14.11448437 142.04821257 22.36423532 144.0063301 29.70556641 150.81616211 C36.05129675 157.66204854 37.42973744 164.91885451 37.38305664 173.96020508 C37.38991989 174.90116028 37.39678314 175.84211548 37.40385437 176.81158447 C37.42205717 179.9018084 37.41829378 182.99152141 37.41259766 186.08178711 C37.41716289 188.2435828 37.42246947 190.40537704 37.42848206 192.56716919 C37.43740062 197.09114489 37.43500461 201.61494394 37.42504883 206.13891602 C37.41356662 211.91782242 37.43376605 217.69611708 37.46296597 223.47494316 C37.48137034 227.93783399 37.48102694 232.40057941 37.47532845 236.86349869 C37.47517572 238.99321475 37.4811795 241.12294097 37.49361992 243.2526207 C37.50860645 246.23886494 37.49779615 249.22399415 37.48071289 252.21020508 C37.49038086 253.07805634 37.50004883 253.94590759 37.51000977 254.84005737 C37.41428797 262.88755014 35.2278827 270.0781506 29.72900391 276.08959961 C22.07276843 283.05578811 14.157174 284.34994058 4.1496582 284.41992188 C3.25695882 284.4299546 2.36425943 284.43998732 1.44450855 284.45032406 C-1.43589397 284.48162543 -4.31631029 284.50644568 -7.19677734 284.53100586 C-8.97880493 284.54941702 -10.76082817 284.56825411 -12.54284668 284.58752441 C-19.13967836 284.6558773 -25.73659333 284.71599074 -32.33349609 284.77709961 C-47.08037109 284.92147461 -61.82724609 285.06584961 -77.02099609 285.21459961 C-77.02099609 326.13459961 -77.02099609 367.05459961 -77.02099609 409.21459961 C-38.41099609 409.21459961 0.19900391 409.21459961 39.97900391 409.21459961 C37.27715721 405.16182956 34.88732076 401.9073279 31.72900391 398.33959961 C29.14517408 395.14950804 27.42199899 392.94526606 27.29150391 388.77709961 C27.99100121 385.15243177 28.19120528 384.3582287 30.97900391 382.21459961 C33.91298073 381.8832808 36.64609872 381.72589855 39.58447266 381.70288086 C40.84327995 381.67595406 40.84327995 381.67595406 42.1275177 381.64848328 C44.8071287 381.59431398 47.48656093 381.56046388 50.16650391 381.52709961 C51.98358611 381.49393232 53.80064471 381.45944321 55.61767578 381.42358398 C60.07132295 381.33858389 64.5249165 381.27180459 68.97900391 381.21459961 C68.98264954 380.21901535 68.98629517 379.22343109 68.99005127 378.19767761 C69.02696099 368.82423212 69.08468918 359.45111639 69.16290665 350.07792187 C69.20244926 345.25880235 69.2346043 340.43986742 69.25 335.62060547 C69.26512211 330.97142341 69.29948782 326.32274857 69.34731293 321.67379189 C69.3621728 319.89839392 69.37004755 318.12292356 69.37088776 316.34746361 C69.37324543 313.86406479 69.40022564 311.38208155 69.43310547 308.89892578 C69.4280751 308.16165253 69.42304474 307.42437927 69.41786194 306.6647644 C69.48163086 303.56058174 69.58980821 301.67807743 71.621521 299.2585907 C74.63883642 297.92239844 76.94218864 297.83347888 80.24462891 297.82641602 C81.51274414 297.81695953 82.78085937 297.80750305 84.08740234 297.79776001 C85.46793938 297.80312988 86.84847356 297.80928287 88.22900391 297.81616211 C89.64860178 297.81414039 91.06819864 297.81122814 92.48779297 297.8074646 C95.46022447 297.80304579 98.43238517 297.80945771 101.40478516 297.82348633 C105.21142127 297.84057834 109.01742281 297.83073473 112.82403564 297.81276894 C115.75460577 297.80191889 118.6850259 297.80538296 121.61560059 297.81315231 C123.01900305 297.81515096 124.4224192 297.81270679 125.82580566 297.80571365 C127.78832736 297.79808005 129.75089692 297.81178156 131.71337891 297.82641602 C133.3873877 297.82999619 133.3873877 297.82999619 135.09521484 297.83364868 C138.44537558 298.27620769 139.79656275 298.6156164 141.97900391 301.21459961 C142.39033448 303.90765873 142.54330198 306.20219096 142.52490234 308.89892578 C142.54040886 310.07001137 142.54040886 310.07001137 142.55622864 311.26475525 C142.58573189 313.84590161 142.58715735 316.4262664 142.58837891 319.00756836 C142.60335553 320.79691572 142.62008159 322.58624922 142.63848877 324.37556458 C142.68223285 329.08556746 142.70217693 333.79538386 142.71722412 338.5055542 C142.73676985 343.31167663 142.77874264 348.11759691 142.81884766 352.92358398 C142.89422613 362.35386028 142.94447128 371.7840915 142.97900391 381.21459961 C144.68213745 381.23647339 144.68213745 381.23647339 146.41967773 381.25878906 C150.62995999 381.31673637 154.8397054 381.39396902 159.04956055 381.47705078 C160.8720631 381.51031701 162.6946691 381.53834367 164.51733398 381.56103516 C167.1365164 381.59455042 169.75474938 381.64686313 172.37353516 381.70288086 C173.18925491 381.70927078 174.00497467 381.71566071 174.84541321 381.72224426 C180.53358363 381.87028289 180.53358363 381.87028289 182.6714325 383.52287292 C184.45466704 385.83000922 184.75021312 387.94965409 184.67041016 390.82788086 C183.40299663 395.20296373 180.2355756 398.26888135 177.24072266 401.60131836 C174.63938571 404.45550225 174.63938571 404.45550225 171.97900391 409.21459961 C185.50900391 409.21459961 199.03900391 409.21459961 212.97900391 409.21459961 C212.97900391 279.85459961 212.97900391 150.49459961 212.97900391 17.21459961 C139.05900391 17.21459961 65.13900391 17.21459961 -11.02099609 17.21459961 Z M-30.62255859 32.68334961 C-33.99201652 36.06581702 -37.28813321 39.46375957 -40.39599609 43.08959961 C-43.13721058 46.2814247 -46.02785497 49.25762938 -49.02099609 52.21459961 C-55.10884654 58.23778397 -60.53952745 64.63683723 -66.02099609 71.21459961 C-53.48099609 71.21459961 -40.94099609 71.21459961 -28.02099609 71.21459961 C-28.02099609 58.01459961 -28.02099609 44.81459961 -28.02099609 31.21459961 C-29.26034012 31.10195171 -29.26034012 31.10195171 -30.62255859 32.68334961 Z M-190.39599609 163.71459961 C-193.34348078 168.24919143 -193.1806884 172.40266122 -193.19799805 177.62988281 C-193.20456924 178.48875092 -193.21114044 179.34761902 -193.21791077 180.23251343 C-193.23763294 183.07680346 -193.24930351 185.92104073 -193.25927734 188.76538086 C-193.26335287 189.73703878 -193.2674284 190.70869671 -193.27162743 191.70979881 C-193.29248281 196.85194054 -193.30678726 201.99405561 -193.31616211 207.13623047 C-193.32722991 212.44593279 -193.36163571 217.75521643 -193.40133381 223.0647707 C-193.42748246 227.14917275 -193.43585236 231.23347472 -193.43944359 235.31795311 C-193.44431348 237.27515684 -193.45593891 239.23235597 -193.47448158 241.18947792 C-193.49883739 243.93036704 -193.49791464 246.67016854 -193.4909668 249.41113281 C-193.50377686 250.21706375 -193.51658691 251.02299469 -193.52978516 251.85334778 C-193.48145116 257.0931878 -192.5758088 260.12306044 -189.02099609 264.21459961 C-184.38864482 267.95979482 -180.78294441 268.79188403 -174.97485352 268.71580505 C-173.78520005 268.72410665 -173.78520005 268.72410665 -172.57151318 268.73257595 C-169.92284175 268.74615287 -167.27511748 268.73122973 -164.62646484 268.71630859 C-162.72400513 268.72009285 -160.82154817 268.72559377 -158.9190979 268.73268127 C-153.75794066 268.74663919 -148.59711666 268.73546364 -143.43597794 268.71897006 C-138.03356924 268.70511588 -132.63117982 268.71158006 -127.22875977 268.71510315 C-118.15652092 268.71780497 -109.08441439 268.70433198 -100.01220703 268.68115234 C-89.5250315 268.65454283 -79.0380772 268.65279564 -68.55087948 268.66454071 C-58.46053679 268.67532175 -48.37027409 268.66912884 -38.27993774 268.65498543 C-33.98660388 268.64922847 -29.69332861 268.64930604 -25.3999939 268.65405083 C-20.34382052 268.65882485 -15.28788926 268.64870116 -10.23176193 268.62709618 C-8.37661938 268.62153396 -6.52145353 268.62105783 -4.66630936 268.62604904 C-2.13298423 268.63200988 0.39960267 268.61948168 2.93286133 268.60227966 C4.03277263 268.61129473 4.03277263 268.61129473 5.15490437 268.62049192 C9.82653155 268.56285036 13.01088922 267.67591255 16.97900391 265.21459961 C21.31007977 260.36513068 21.55699421 256.3706386 21.49658203 250.18334961 C21.50359131 249.29478271 21.51060059 248.40621582 21.51782227 247.49072266 C21.53537089 244.56502671 21.5237906 241.64030472 21.51025391 238.71459961 C21.51294972 236.67488419 21.51683288 234.63517002 21.52185059 232.59545898 C21.5277414 228.32515196 21.51919597 224.05518011 21.50048828 219.78491211 C21.47769917 214.3171521 21.49082446 208.8501775 21.51477814 203.38244629 C21.52924728 199.17189642 21.52462496 194.96153209 21.51426697 190.75097656 C21.51160278 188.73518785 21.51485859 186.71938218 21.52418518 184.70361328 C21.53436902 181.88390624 21.51882397 179.06546279 21.49658203 176.24584961 C21.50467896 175.41657959 21.51277588 174.58730957 21.52111816 173.73291016 C21.4444356 168.47303399 20.67225666 165.24244386 16.97900391 161.21459961 C11.88375663 158.5594839 7.68740622 157.78001697 1.93322754 157.83364868 C0.76172677 157.82662872 0.76172677 157.82662872 -0.43344069 157.81946695 C-3.03506722 157.80755714 -5.63616307 157.81695827 -8.23779297 157.82641602 C-10.10922044 157.82234853 -11.98064551 157.81700565 -13.85206604 157.81048584 C-18.92433389 157.79682756 -23.99641835 157.80210478 -29.06868935 157.8116231 C-34.38120639 157.81922737 -39.69370791 157.81217195 -45.00622559 157.8074646 C-53.92703058 157.8020093 -62.84776102 157.80919278 -71.76855469 157.82348633 C-82.07679389 157.83981238 -92.38485507 157.83452372 -102.69308996 157.81800711 C-111.54933364 157.80438586 -120.40552377 157.80247572 -129.26177454 157.81032312 C-134.54868646 157.8149961 -139.83551475 157.81563474 -145.12242126 157.80571365 C-150.09323889 157.79703701 -155.06382737 157.80307876 -160.03462029 157.82039642 C-161.85709694 157.82435752 -163.67959293 157.82323368 -165.50206184 157.81660843 C-167.99337335 157.80838787 -170.48395451 157.81872033 -172.97521973 157.83364868 C-174.05222932 157.82361043 -174.05222932 157.82361043 -175.15099669 157.81336939 C-181.30097112 157.88465291 -186.08089721 159.17239026 -190.39599609 163.71459961 Z M85.97900391 314.21459961 C85.94162109 319.63124023 85.90423828 325.04788086 85.86572266 330.62866211 C85.83543843 334.06489155 85.80428767 337.50106948 85.77001953 340.93725586 C85.71573755 346.38856383 85.66462587 351.83976989 85.63256836 357.29125977 C85.60651505 361.6875263 85.56609837 366.08344978 85.51581764 370.47950363 C85.49916262 372.15473531 85.48763984 373.83002632 85.48139 375.50532913 C85.47173388 377.85621151 85.44365782 380.20621893 85.41137695 382.55688477 C85.41281204 383.24596924 85.41424713 383.93505371 85.41572571 384.64501953 C85.3277735 389.18865153 84.43925856 392.38616022 81.97900391 396.21459961 C78.86756823 397.25174483 76.48432295 397.41491822 73.21728516 397.53100586 C72.09902344 397.57290039 70.98076172 397.61479492 69.82861328 397.65795898 C68.66136719 397.69727539 67.49412109 397.7365918 66.29150391 397.77709961 C65.11265625 397.8202832 63.93380859 397.8634668 62.71923828 397.90795898 C59.80594508 398.01411137 56.89256634 398.11616203 53.97900391 398.21459961 C57.24581232 402.66309266 60.52820038 406.98030805 64.29150391 411.02709961 C68.20336649 415.31058914 71.88752652 419.73099275 75.53759766 424.23803711 C78.26430756 427.56244182 81.04976279 430.8306167 83.85400391 434.08959961 C87.91130329 438.80568227 91.95838211 443.52967836 95.97900391 448.27709961 C96.42356934 448.80094238 96.86813477 449.32478516 97.32617188 449.86450195 C99.92928338 452.94108731 102.47562165 456.05639746 104.97900391 459.21459961 C108.69299343 457.71742343 110.4764115 455.66034687 112.91650391 452.52709961 C116.66204135 447.81895288 120.51818822 443.24296946 124.47900391 438.71459961 C128.95038634 433.58858676 133.31168212 428.39565693 137.58837891 423.10522461 C141.0971576 418.86258371 144.72784227 414.72688554 148.37548828 410.60327148 C151.85460111 406.63631258 154.97498866 402.55373274 157.97900391 398.21459961 C157.24786377 398.20001709 156.51672363 398.18543457 155.76342773 398.17041016 C152.4389302 398.09577051 149.11541923 397.9991616 145.79150391 397.90209961 C144.06577148 397.86826172 144.06577148 397.86826172 142.30517578 397.83374023 C141.19335938 397.79829102 140.08154297 397.7628418 138.93603516 397.72631836 C137.91485596 397.70013428 136.89367676 397.6739502 135.84155273 397.64697266 C132.52235379 397.14562499 130.61627949 396.28332196 127.97900391 394.21459961 C126.58881124 390.55461099 126.80561648 386.64729632 126.77368164 382.78393555 C126.76378204 382.04208008 126.75388245 381.30022461 126.74368286 380.53588867 C126.71216244 378.09028282 126.68734795 375.64465756 126.66259766 373.19897461 C126.64201996 371.50074771 126.62102327 369.80252584 126.59962463 368.10430908 C126.54448824 363.63932371 126.49504184 359.17429275 126.44677734 354.70922852 C126.3876577 349.34936549 126.32147619 343.98958559 126.25647736 338.62979126 C126.15857394 330.4914449 126.06964536 322.35304469 125.97900391 314.21459961 C112.77900391 314.21459961 99.57900391 314.21459961 85.97900391 314.21459961 Z " fill="#000000" transform="translate(246.02099609375,14.785400390625)"/>
<path d="M0 0 C12.76654758 1.80896493 23.83598034 8.23752045 31.625 18.5625 C39.50770784 30.46521406 40.89712743 43.57765619 38.375 57.43359375 C34.80699692 69.68267576 26.71537267 78.76089129 15.93359375 85.2421875 C8.52598225 89.21417488 1.11329634 90.36108416 -7.1875 90.375 C-7.96802734 90.39949219 -8.74855469 90.42398438 -9.55273438 90.44921875 C-10.31263672 90.45308594 -11.07253906 90.45695312 -11.85546875 90.4609375 C-12.53246826 90.46915527 -13.20946777 90.47737305 -13.90698242 90.48583984 C-17.13684825 89.73611011 -18.68367598 88.36261618 -21 86 C-21.50536893 83.1962773 -21.68556215 80.99273448 -21.64697266 78.18969727 C-21.65573425 77.40710541 -21.66449585 76.62451355 -21.67352295 75.81820679 C-21.69551222 73.23370759 -21.68096571 70.65092255 -21.6640625 68.06640625 C-21.66743114 66.26805798 -21.67228416 64.46971194 -21.67855835 62.67137146 C-21.68592928 58.9026827 -21.67521861 55.13458663 -21.65185547 51.3659668 C-21.62338771 46.53905503 -21.63975705 41.71353448 -21.66971779 36.88667393 C-21.6878025 33.17280127 -21.68202707 29.45925735 -21.66907883 25.74537468 C-21.66574698 23.9660011 -21.66982415 22.18659753 -21.68147659 20.40725899 C-21.69420288 17.91727032 -21.67478547 15.42951957 -21.64697266 12.93969727 C-21.65709381 12.206548 -21.66721497 11.47339874 -21.67764282 10.71803284 C-21.59766233 6.8456061 -21.09829542 5.12550752 -18.6824646 2.0408783 C-13.4489257 -1.94091365 -6.28455352 -0.61245831 0 0 Z M-4 17 C-4 35.48 -4 53.96 -4 73 C6.14104333 71.73236958 11.14181993 68.88337269 17.5234375 61.015625 C22.77757114 53.84331559 23.0018663 46.72499096 22 38 C19.77085274 30.14952488 14.68907525 24.51350223 8 20 C4.00024673 18.12629855 0.42462966 17 -4 17 Z " fill="#000000" transform="translate(154,183)"/>
<path d="M0 0 C1.19882813 -0.020625 2.39765625 -0.04125 3.6328125 -0.0625 C15.09068908 -0.11275384 22.3481984 1.67298788 30.69921875 9.73828125 C36.51506181 16.45208213 37.51992495 23.50709383 37.18359375 32.2109375 C36.30643609 40.84927492 32.27622775 46.44317197 25.875 52.25 C19.26168782 56.67508389 12.91000794 57.4101245 5.0625 57.3125 C4.36962891 57.30798828 3.67675781 57.30347656 2.96289062 57.29882812 C1.26688932 57.28713156 -0.42906703 57.26919924 -2.125 57.25 C-2.09881592 58.07201904 -2.07263184 58.89403809 -2.0456543 59.7409668 C-1.9415856 63.47294938 -1.87663872 67.2046266 -1.8125 70.9375 C-1.77060547 72.23107422 -1.72871094 73.52464844 -1.68554688 74.85742188 C-1.66943359 76.10458984 -1.65332031 77.35175781 -1.63671875 78.63671875 C-1.61053467 79.78358154 -1.58435059 80.93044434 -1.55737305 82.11206055 C-2.30270118 86.23236268 -3.88375584 87.68697095 -7.125 90.25 C-10.625 90.875 -10.625 90.875 -14.125 90.25 C-17.66251319 87.54625613 -18.98293691 86.07556557 -19.74645996 81.63853455 C-19.76993326 80.22658315 -19.76610691 78.81400908 -19.74023438 77.40209961 C-19.74855789 76.2402137 -19.74855789 76.2402137 -19.75704956 75.05485535 C-19.76882715 72.50338194 -19.744594 69.95369196 -19.71875 67.40234375 C-19.71703847 65.6254535 -19.71710501 63.84856073 -19.71887207 62.07167053 C-19.71721997 58.35181448 -19.69854089 54.63256192 -19.66699219 50.9128418 C-19.62728585 46.1455358 -19.6229509 41.37901894 -19.63045502 36.61157894 C-19.63352462 32.94410476 -19.62140506 29.2768079 -19.60432434 25.60937691 C-19.59729543 23.8515185 -19.59416968 22.09364 -19.59501648 20.33576775 C-19.59321831 17.87964421 -19.57183677 15.42446589 -19.54492188 12.96850586 C-19.54785248 12.24268311 -19.55078308 11.51686035 -19.55380249 10.76904297 C-19.5018103 7.69340762 -19.28772256 5.5441362 -17.78625488 2.83009338 C-13.32869707 -1.40968805 -5.72208394 0.02414381 0 0 Z M-2.125 17.25 C-2.125 24.84 -2.125 32.43 -2.125 40.25 C7.08289778 41.12915277 7.08289778 41.12915277 15.625 38.4375 C18.81358439 35.3374874 20.17488308 33.27685177 20.25 28.875 C20.17302867 25.4937595 19.91484335 24.3168799 18.125 21.3125 C13.72550284 17.27962761 10.5810816 17.01470219 4.625 17.125 C2.3975 17.16625 0.17 17.2075 -2.125 17.25 Z " fill="#000000" transform="translate(88.125,182.75)"/>
<path d="M0 0 C0.76429321 -0.01260864 1.52858643 -0.02521729 2.31604004 -0.03820801 C3.12762573 -0.03011108 3.93921143 -0.02201416 4.77539062 -0.01367188 C6.04545959 -0.01941223 6.04545959 -0.01941223 7.34118652 -0.02526855 C9.1263956 -0.02798326 10.91164475 -0.02065294 12.69677734 -0.00390625 C15.42310602 0.01751108 18.14679977 -0.0037214 20.87304688 -0.02929688 C22.61133392 -0.02665352 24.34961933 -0.02152837 26.08789062 -0.01367188 C26.89947632 -0.0217688 27.71106201 -0.02986572 28.54724121 -0.03820801 C32.51124792 0.02718672 34.48864049 0.23929428 37.92578125 2.3984375 C40.27922724 4.88479475 40.84850602 6.10905936 40.93164062 9.51757812 C39.8780467 13.54039128 38.48966158 15.408996 34.93164062 17.51757812 C31.99902344 17.8581543 31.99902344 17.8581543 28.63476562 17.81054688 C26.82685547 17.79604492 26.82685547 17.79604492 24.98242188 17.78125 C23.72816406 17.75611328 22.47390625 17.73097656 21.18164062 17.70507812 C19.91191406 17.69154297 18.6421875 17.67800781 17.33398438 17.6640625 C14.19968879 17.6287133 11.06561124 17.57490686 7.93164062 17.51757812 C7.93164062 24.11757812 7.93164062 30.71757812 7.93164062 37.51757812 C9.68992188 37.48277344 11.44820312 37.44796875 13.25976562 37.41210938 C15.56704775 37.38397179 17.87434019 37.3566716 20.18164062 37.33007812 C21.34050781 37.30494141 22.499375 37.27980469 23.69335938 37.25390625 C24.80839844 37.24423828 25.9234375 37.23457031 27.07226562 37.22460938 C28.09868164 37.20889893 29.12509766 37.19318848 30.18261719 37.17700195 C33.35598653 37.57015029 34.68430905 38.26992235 36.93164062 40.51757812 C38.00159958 44.36943036 38.30165162 46.59255064 36.80664062 50.33007812 C34.12673376 53.45663614 31.4218731 54.3867943 27.34448242 54.74462891 C26.44898682 54.73415527 25.55349121 54.72368164 24.63085938 54.71289062 C23.65439453 54.70644531 22.67792969 54.7 21.671875 54.69335938 C20.66447266 54.67660156 19.65707031 54.65984375 18.61914062 54.64257812 C17.59240234 54.63355469 16.56566406 54.62453125 15.5078125 54.61523438 C12.98218163 54.59174013 10.45703253 54.55888943 7.93164062 54.51757812 C7.94211426 55.33959717 7.95258789 56.16161621 7.96337891 57.00854492 C8.00500821 60.74069143 8.03098915 64.47278902 8.05664062 68.20507812 C8.07339844 69.49865234 8.09015625 70.79222656 8.10742188 72.125 C8.11386719 73.37216797 8.1203125 74.61933594 8.12695312 75.90429688 C8.13742676 77.05115967 8.14790039 78.19802246 8.15869141 79.37963867 C7.86260859 83.47163053 7.051688 86.35752906 4.18164062 89.33007812 C1.15269134 90.92869025 -0.68237989 91.00128948 -4.06835938 90.51757812 C-6.71932983 88.98510742 -6.71932983 88.98510742 -9.06835938 86.51757812 C-9.5733878 83.68019468 -9.75381556 81.4364776 -9.71533203 78.59960938 C-9.72409363 77.80565765 -9.73285522 77.01170593 -9.74188232 76.19369507 C-9.76387088 73.5719318 -9.74932662 70.95185821 -9.73242188 68.33007812 C-9.73579019 66.50691403 -9.74064294 64.68375212 -9.74691772 62.8605957 C-9.75428828 59.04063526 -9.74357788 55.22125962 -9.72021484 51.40136719 C-9.69172668 46.50486201 -9.70812971 41.609727 -9.73807716 36.71327209 C-9.75614536 32.9488289 -9.75039437 29.18471055 -9.7374382 25.42025757 C-9.73410285 23.61493772 -9.73819583 21.80958838 -9.74983597 20.00430298 C-9.76253728 17.48058979 -9.74318046 14.9590948 -9.71533203 12.43554688 C-9.72545319 11.6894516 -9.73557434 10.94335632 -9.7460022 10.1746521 C-9.66982731 6.44844847 -9.35401747 4.82527269 -6.78219604 2.05505371 C-4.19534442 0.58951923 -2.9100109 0.01389153 0 0 Z " fill="#000000" transform="translate(211.068359375,182.482421875)"/>
<path d="M0 0 C1.15947647 -0.01292336 1.15947647 -0.01292336 2.34237671 -0.02610779 C4.88875133 -0.04874714 7.43402367 -0.04203358 9.98046875 -0.03295898 C11.75496751 -0.03819521 13.52946349 -0.04447168 15.30395508 -0.05174255 C19.01950191 -0.06214275 22.73466566 -0.05759044 26.45019531 -0.04296875 C31.20866348 -0.02577437 35.96592489 -0.04928563 40.72425842 -0.08445835 C44.38749167 -0.10643074 48.05043604 -0.10499143 51.7137146 -0.09669304 C53.46798019 -0.09587356 55.22226699 -0.10273634 56.97647095 -0.11746407 C59.43037886 -0.13490958 61.88211645 -0.1203706 64.3359375 -0.09765625 C65.05816498 -0.10934845 65.78039246 -0.12104065 66.52450562 -0.13308716 C70.37633247 -0.06064018 72.05458025 0.44426055 75.1184082 2.85414124 C77.16796875 5.53344727 77.16796875 5.53344727 77.79296875 9.03344727 C76.99374018 13.50912727 75.716044 14.74148491 72.16796875 17.53344727 C69.35371442 18.02913437 67.14353445 18.21976504 64.3359375 18.18041992 C63.56295319 18.18918152 62.78996887 18.19794312 61.99356079 18.20697021 C59.44695342 18.22891692 56.90209272 18.21442969 54.35546875 18.19750977 C52.58096993 18.20087929 50.80647336 18.20573305 49.03198242 18.21200562 C45.31634507 18.21937049 41.60130948 18.20868419 37.88574219 18.18530273 C33.12723391 18.15681477 28.37013564 18.17322086 23.61167908 18.20316505 C19.9484193 18.22124869 16.28549282 18.2154752 12.6222229 18.20252609 C10.86796908 18.19919501 9.11368482 18.20326873 7.35946655 18.21492386 C4.90549796 18.22765077 2.4537998 18.20823317 0 18.18041992 C-1.08334122 18.19560165 -1.08334122 18.19560165 -2.18856812 18.21109009 C-6.09946892 18.12913124 -7.71009329 17.63310441 -10.7800293 15.12411499 C-12.78499406 12.59283207 -13.51973779 11.62508637 -13.45703125 8.47094727 C-12.83203125 4.53344727 -12.83203125 4.53344727 -10.7824707 2.32069397 C-7.12613204 0.10584451 -4.15031833 -0.03750131 0 0 Z " fill="#000000" transform="translate(332.83203125,208.466552734375)"/>
<path d="M0 0 C0.75303909 -0.0049649 1.50607819 -0.00992981 2.28193665 -0.01504517 C4.77935696 -0.02967948 7.27671373 -0.03647133 9.77416992 -0.04199219 C11.50811261 -0.04774317 13.24205528 -0.05350091 14.97599792 -0.05926514 C18.61518653 -0.06977913 22.25435302 -0.075619 25.89355469 -0.07910156 C30.55426279 -0.0845832 35.21467829 -0.10860237 39.87529469 -0.13707352 C43.45868276 -0.15570916 47.04200053 -0.16090602 50.62543297 -0.16243744 C52.34341721 -0.16546307 54.06140023 -0.17348858 55.77933693 -0.18662262 C58.18514789 -0.20370061 60.59024657 -0.20179868 62.99609375 -0.1953125 C63.70433289 -0.20452728 64.41257202 -0.21374207 65.14227295 -0.22323608 C69.48992735 -0.18656604 72.23207148 0.49693206 75.69213867 3.16113281 C77.256851 6.29055746 77.38915825 9.77195505 76.69213867 13.16113281 C75.16040039 15.25817871 75.16040039 15.25817871 72.69213867 17.16113281 C69.91998068 17.55586792 67.54468816 17.70877771 64.77416992 17.67871094 C63.58324234 17.68922485 63.58324234 17.68922485 62.36825562 17.69995117 C59.74669303 17.71754067 57.12621202 17.70590554 54.50463867 17.69238281 C52.68147576 17.69507746 50.85831424 17.69895966 49.03515625 17.70397949 C45.21527414 17.70987582 41.39576632 17.70130735 37.57592773 17.68261719 C32.67959298 17.65982745 27.78413522 17.67294983 22.88783264 17.69690704 C19.12342725 17.71136145 15.35922977 17.7067607 11.59481812 17.69639587 C9.78949886 17.69372759 7.98416073 17.69700191 6.17886353 17.70631409 C3.65543625 17.71647399 1.13342893 17.70098768 -1.38989258 17.67871094 C-2.50903549 17.69085632 -2.50903549 17.69085632 -3.65078735 17.70324707 C-7.13390565 17.64628268 -8.97861509 17.41623905 -11.76953125 15.25378418 C-13.89889422 12.35712734 -13.87508912 10.54964524 -13.70629883 7.06347656 C-13.09890556 4.16347143 -11.64286341 2.87804611 -9.30786133 1.16113281 C-6.32518525 -0.33020523 -3.27133263 0.00511946 0 0 Z " fill="#000000" transform="translate(333.307861328125,160.8388671875)"/>
<path d="M0 0 C1.19092758 -0.01051392 1.19092758 -0.01051392 2.40591431 -0.02124023 C5.02747689 -0.03882973 7.6479579 -0.02719461 10.26953125 -0.01367188 C12.09269416 -0.01636653 13.91585568 -0.02024872 15.73901367 -0.02526855 C19.55889578 -0.03116488 23.3784036 -0.02259641 27.19824219 -0.00390625 C32.09457694 0.01888349 36.9900347 0.00576111 41.88633728 -0.01819611 C45.65074267 -0.03265052 49.41494015 -0.02804976 53.17935181 -0.01768494 C54.98467106 -0.01501666 56.79000919 -0.01829097 58.5953064 -0.02760315 C61.11873367 -0.03776305 63.64074099 -0.02227675 66.1640625 0 C67.28320541 -0.01214539 67.28320541 -0.01214539 68.42495728 -0.02453613 C71.90807557 0.03242826 73.75278501 0.26247188 76.54370117 2.42492676 C78.67306389 5.32158325 78.6544643 7.12841572 78.47265625 10.61523438 C77.86281703 13.58515138 76.5264008 14.82009927 74.08203125 16.51757812 C70.42061713 17.78711715 66.79147309 17.65827153 62.94604492 17.67871094 C61.8793885 17.68615829 61.8793885 17.68615829 60.79118347 17.6937561 C58.44411238 17.70833281 56.09710888 17.71517236 53.75 17.72070312 C52.11338805 17.72645847 50.47677612 17.73221615 48.84016418 17.73797607 C45.40963427 17.74847342 41.9791277 17.7543243 38.54858398 17.7578125 C34.1638891 17.76329324 29.77950536 17.7873175 25.39490795 17.81578445 C22.01389173 17.83445607 18.63294978 17.83961884 15.25188637 17.84114838 C13.63603325 17.84416545 12.02018114 17.85216192 10.40437889 17.86533356 C8.13808238 17.8824886 5.87253719 17.88049117 3.60620117 17.87402344 C1.67571175 17.87949188 1.67571175 17.87949188 -0.29377747 17.8850708 C-4.52074029 17.45645714 -7.16162171 16.46451041 -10.91796875 14.51757812 C-12.48268108 11.38815347 -12.61498833 7.90675589 -11.91796875 4.51757812 C-8.61871758 0.00069608 -5.23224369 -0.0567824 0 0 Z " fill="#000000" transform="translate(331.91796875,256.482421875)"/>
</svg>
