<?xml version="1.0" encoding="UTF-8"?>
<svg id="Layer_1" data-name="Layer 1" xmlns="http://www.w3.org/2000/svg" viewBox="0 0 85.12 143.58">
  <defs>
    <style>
      .cls-1 {
        fill: #1d1d1b;
      }
    </style>
  </defs>
  <g>
    <path class="cls-1" d="M3.08,73.63c-.52-.02-.96.36-1.05.87-.5,3.11-1.01,6.21-1.42,9.53-1.81,14.81.18,30.51,8.86,42.64,7.23,10.11,16.93,15.74,29.09,16.9.72.07,1.34-.51,1.34-1.24v-30.55c0-3.82-.88-7.59-2.6-11.01-4.69-9.29-15.83-26.48-34.23-27.15Z"/>
    <path class="cls-1" d="M39.91,94.15V1.25c0-1-1.11-1.59-1.94-1.05C20.91,11.25,9.29,33.84,3.06,67.93c-.11.62.36,1.19.99,1.22,20.04.8,30.78,16.19,35.32,25.13.14.27.53.16.53-.13Z"/>
  </g>
  <g>
    <path class="cls-1" d="M82.04,73.63c.52-.02.96.36,1.05.87.5,3.11,1.01,6.21,1.42,9.53,1.81,14.81-.18,30.51-8.86,42.64-7.23,10.11-16.93,15.74-29.09,16.9-.72.07-1.34-.51-1.34-1.24v-30.55c0-3.82.88-7.59,2.6-11.01,4.69-9.29,15.83-26.48,34.23-27.15Z"/>
    <path class="cls-1" d="M45.21,94.15V1.25c0-1,1.11-1.59,1.94-1.05,17.05,11.04,28.68,33.64,34.9,67.73.11.62-.36,1.19-.99,1.22-20.04.8-30.78,16.19-35.32,25.13-.14.27-.53.16-.53-.13Z"/>
  </g>
</svg>